<?xml version="1.0" encoding="UTF-8"?>
<svg version="1.1" xmlns="http://www.w3.org/2000/svg" width="512" height="512">
<path d="M0 0 C5.06234914 4.35014979 9.71265447 9.15420849 14.41650391 13.88305664 C15.83126292 15.29074584 17.24685985 16.69759332 18.66322327 18.10366821 C22.48448341 21.90254097 26.29304108 25.71390744 30.09866762 29.52843404 C33.28787985 32.72277945 36.48330693 35.91087158 39.67871892 39.09901327 C47.22357221 46.62690037 54.7581423 54.16496936 62.28613281 61.7097168 C70.02685359 69.46734604 77.7837937 77.20847401 85.54911292 84.94147402 C92.23882776 91.60440914 98.91869373 98.27710583 105.59079874 104.95767492 C109.56555963 108.93734172 113.54372127 112.91343839 117.53123856 116.88032722 C121.28385648 120.61445692 125.02390431 124.36075464 128.75504875 128.11633682 C130.11760894 129.48386383 131.484338 130.84725332 132.85575676 132.20589638 C149.1460718 148.35654139 160.15955724 165.23196062 160.3125 188.875 C160.3125 218.10537107 144.830286 234.30684571 125.30126953 253.87573242 C123.93831718 255.24496374 122.57554977 256.61437917 121.21295166 257.98396301 C116.77310774 262.44466154 112.3280982 266.9001943 107.8828125 271.35546875 C106.3448257 272.89750866 104.80687092 274.43958051 103.2689476 275.98168373 C96.04683487 283.22279915 88.82234676 290.4615342 81.59490883 297.69733447 C73.27854703 306.02348116 64.97054562 314.3578557 56.66948617 322.69925803 C50.23123094 329.16771863 43.78527521 335.62844076 37.33355415 342.08347017 C33.48922491 345.93014265 29.64822933 349.78000636 25.81537247 353.63811302 C22.21093923 357.26591268 18.596997 360.88396786 14.97574615 364.49497795 C13.65455204 365.81567886 12.33672661 367.13976043 11.02269363 368.46758652 C-4.64038039 384.2857351 -21.56867752 394.82788338 -44.5 395.375 C-65.05039025 394.88519795 -82.74027192 386.68459893 -97 372 C-101.9909745 365.88429885 -105.82278173 359.21029239 -109 352 C-109.29777344 351.34128906 -109.59554687 350.68257813 -109.90234375 350.00390625 C-116.38305288 333.46358891 -114.69959413 314.09238059 -108 298 C-100.31823146 280.62279545 -84.7808607 267.50728619 -71.55078125 254.35546875 C-69.68276285 252.49118812 -67.81519116 250.62645979 -65.94804382 248.76130676 C-61.56793641 244.3873618 -57.18276673 240.01853035 -52.79565257 235.65161449 C-47.79267513 230.67116121 -42.79552373 225.68487917 -37.79880011 220.6981529 C-27.53890331 210.45903919 -17.27188224 200.22708973 -7 190 C-11.44626586 184.67000665 -16.14729962 179.73082476 -21.08154297 174.85253906 C-21.86936157 174.06939331 -22.65718018 173.28624756 -23.46887207 172.47937012 C-25.17016636 170.78853049 -26.87255345 169.09878984 -28.57592392 167.41004181 C-31.27852185 164.72958837 -33.97703005 162.04508105 -36.67434692 159.35931396 C-44.34067131 151.72646354 -52.01091358 144.09759463 -59.69189453 136.47949219 C-64.39999306 131.80984149 -69.09998501 127.13212401 -73.79568863 122.45000458 C-75.57814645 120.67555794 -77.36336833 118.90388306 -79.15148544 117.13513947 C-97.22459038 99.2544444 -112.33721008 81.77152674 -113.25 55.0625 C-113.01121473 35.74742519 -105.84886267 18.16519885 -92.5625 4.125 C-66.50503621 -20.07549511 -28.30081343 -20.90627537 0 0 Z " fill="#000000" transform="translate(352,66)"/>
<path d="M0 0 C5.09896902 4.38523656 9.78449578 9.22606891 14.52416992 13.99072266 C15.95040341 15.40988656 17.3774749 16.82820869 18.80531311 18.24575806 C22.65749684 22.07555393 26.49697857 25.91784472 30.33352828 29.7632947 C33.54768848 32.98258713 36.76806226 36.19562782 39.98842221 39.40871656 C47.59076662 46.99409524 55.18282856 54.58965585 62.76831055 62.19189453 C70.5715314 70.01203079 78.39098456 77.81565522 86.21880263 85.61116374 C92.96029855 92.32589484 99.69196294 99.05037084 106.41585428 105.78273046 C110.42243938 109.79422492 114.43243901 113.80213682 118.45177269 117.80086136 C122.23310266 121.56372619 126.00190074 125.33872347 129.76175499 129.12304306 C131.13601969 130.50228145 132.51446915 131.87736609 133.89758682 133.24772644 C150.40984648 149.61979212 160.76230453 167.15122142 161 191 C159.11359574 219.71526482 143.29854495 235.82257581 124.12182617 255.08691406 C122.76346726 256.45483904 121.405272 257.82292653 120.04722595 259.19116211 C115.63296286 263.63645831 111.21345976 268.07652298 106.79296875 272.515625 C106.03709543 273.27479564 105.28122212 274.03396627 104.50244355 274.81614208 C97.35817331 281.9911484 90.21186539 289.16411951 83.06072521 296.33227921 C73.96224931 305.45267921 64.87400266 314.58301476 55.79933566 323.72710633 C49.38826978 330.18552958 42.9656413 336.63231119 36.53447896 343.07072234 C32.70590072 346.90423323 28.88245184 350.74253994 25.07143211 354.59351349 C21.48692301 358.21511658 17.88818113 361.82196573 14.27848244 365.41845703 C12.96484365 366.73214936 11.65623044 368.05089185 10.35339355 369.37529755 C-4.75686885 384.72203187 -22.21791217 394.78901031 -44.25 395.3125 C-60.63435404 395.04850235 -75.12110507 390.08482959 -88 380 C-88.69867188 379.46632813 -89.39734375 378.93265625 -90.1171875 378.3828125 C-102.09638289 368.64097656 -110.74761461 353.282852 -113 338 C-114.73379885 318.30404503 -112.09549203 299.98513705 -99.66387939 283.99520874 C-98.76913518 282.92999564 -97.86666986 281.87123687 -96.95800781 280.81787109 C-96.44562183 280.22309652 -95.93323586 279.62832195 -95.40532303 279.01552391 C-87.59044609 270.09669085 -79.07748137 261.83167583 -70.671875 253.4765625 C-68.82770558 251.63613187 -66.98398363 249.79525278 -65.14068604 247.95394897 C-60.82082215 243.64024097 -56.49589785 239.3316455 -52.16901612 235.02497804 C-47.23371836 230.11222553 -42.30426509 225.19362571 -37.37523413 220.27458692 C-27.25653271 210.17665361 -17.13070801 200.08588701 -7 190 C-11.44626586 184.67000665 -16.14729962 179.73082476 -21.08154297 174.85253906 C-21.86936157 174.06939331 -22.65718018 173.28624756 -23.46887207 172.47937012 C-25.17016636 170.78853049 -26.87255345 169.09878984 -28.57592392 167.41004181 C-31.27852185 164.72958837 -33.97703005 162.04508105 -36.67434692 159.35931396 C-44.34067131 151.72646354 -52.01091358 144.09759463 -59.69189453 136.47949219 C-64.39999306 131.80984149 -69.09998501 127.13212401 -73.79568863 122.45000458 C-75.57814645 120.67555794 -77.36336833 118.90388306 -79.15148544 117.13513947 C-98.4354868 98.05643942 -112.67043501 80.25636318 -113.02734375 52.05419922 C-112.78289863 33.69025933 -104.85332437 16.79237034 -92.08203125 3.828125 C-66.55278069 -20.52005703 -27.76436251 -20.52519699 0 0 Z " fill="#000000" transform="translate(113,66)"/>
<path d="M0 0 C3.29609602 1.94829496 5.83324825 4.09114433 8.62829018 6.70474148 C9.14284913 7.18486736 9.65740808 7.66499324 10.18755972 8.15966839 C16.40499831 13.99695686 22.44554424 20.015038 28.48189735 26.03825283 C29.77423212 27.32430335 31.06674855 28.61017134 32.35943031 29.89587307 C36.55429897 34.06996091 40.74406981 38.24914625 44.93355751 42.42863369 C46.38585444 43.87687561 47.83818238 45.32508643 49.2905407 46.77326679 C56.10715738 53.57090212 62.92140818 60.37089811 69.73272741 67.17384154 C77.56589705 74.99721506 85.40730394 82.81221086 93.25569761 90.62031084 C99.34711039 96.68152944 105.43079407 102.75043686 111.50878298 108.8251161 C115.12903571 112.44302562 118.75247556 116.0575967 122.384161 119.66403294 C125.79611341 123.05263651 129.19833498 126.4507205 132.59350395 129.85613728 C133.83561139 131.09873823 135.08110471 132.33796597 136.3303318 133.57340908 C145.90628091 143.04962671 155.23175986 152.71589516 155.53512001 166.95597744 C155.15392002 185.57124367 140.13052836 196.94904253 127.93380165 209.17179775 C126.62833971 210.48353945 125.32306236 211.79546488 124.01795387 213.10755825 C119.76809101 217.37826324 115.51307382 221.64381369 111.25777626 225.90910244 C109.78539282 227.3855392 108.31304131 228.8620078 106.84072113 230.33850765 C99.92775734 237.27046994 93.0124213 244.20005479 86.09413534 251.12670541 C78.13263735 259.09799217 70.17950657 267.07750785 62.23330218 275.06403947 C56.07021409 281.25732207 49.89943664 287.44287568 43.72288793 293.62273383 C40.04235136 297.30561453 36.36515705 300.9916888 32.69608688 304.68599606 C29.24677257 308.15865825 25.78797678 311.62159294 22.32184982 315.07747173 C21.05667479 316.34215315 19.79487468 317.61022192 18.5368557 318.8820219 C8.78640316 328.73322855 -0.85032171 337.98168435 -15.52737999 338.26847744 C-23.99361487 338.14318432 -31.45078901 335.656707 -38.27737999 330.58097744 C-46.95241301 321.49284761 -50.5391244 312.76459745 -50.25784874 300.24113369 C-49.28432963 290.90176902 -43.63601003 283.30964385 -37.13144493 276.81953335 C-36.66658581 276.35296538 -36.2017267 275.88639742 -35.72278094 275.40569103 C-34.17829861 273.8579387 -32.6268233 272.31740084 -31.07523155 270.77677822 C-29.96092541 269.66303673 -28.84706048 268.54885365 -27.73360252 267.43426418 C-24.7198017 264.41989096 -21.69988664 261.41171202 -18.6788168 258.40462637 C-15.51885602 255.25719171 -12.36458071 252.10406963 -9.209692 248.95155239 C-3.23915459 242.98722421 2.73646149 237.02801145 8.71392941 231.07062995 C15.52074858 224.28618709 22.32187072 217.49604544 29.12252569 210.70542455 C43.10790421 196.74093543 57.10040409 182.78360073 71.09762001 168.83097744 C69.58275267 165.26751337 67.50266586 162.99589041 64.76615334 160.27918911 C63.85637733 159.37099926 62.94660133 158.46280941 62.00925636 157.52709866 C60.99818234 156.52788729 59.98702537 155.52875986 58.97579384 154.52970791 C57.9125274 153.47191834 56.84972348 152.41366369 55.78734779 151.35497952 C53.49893903 149.07628039 51.20750958 146.80067819 48.91376114 144.52735424 C45.2806325 140.92608155 41.65571072 137.316624 38.03211403 133.70576382 C29.02585697 124.73357681 20.01042948 115.7706193 10.98995399 106.81272793 C3.98743595 99.85877906 -3.01179624 92.90159983 -10.00050908 85.93377316 C-13.59495621 82.35079092 -17.19621131 78.77484507 -20.80287111 75.20415854 C-23.05655618 72.96980618 -25.30383044 70.72908805 -27.54945564 68.48663807 C-28.58395681 67.45612151 -29.62101174 66.42816049 -30.66093826 65.40311909 C-41.53776021 54.67627029 -49.62957929 45.02827424 -50.33987999 29.26847744 C-49.98049492 19.53743563 -45.89935086 12.96071134 -39.27347374 6.03019619 C-28.37906584 -4.07450175 -13.56949037 -6.62758423 0 0 Z " fill="#FDC006" transform="translate(322.902379989624,88.16902256011963)"/>
<path d="M0 0 C8.42071092 5.62929817 15.37967653 13.0827479 22.50268555 20.2121582 C23.84361977 21.54709867 25.18496 22.88163142 26.52667236 24.21578979 C30.14904936 27.82059121 33.76500288 31.43176866 37.3792417 35.04472756 C39.64144404 37.30550356 41.90506656 39.56484748 44.16919899 41.82369041 C52.078548 49.71457089 59.98274873 57.61056603 67.88208008 65.51147461 C75.22964695 72.86024375 82.58830532 80.19777474 89.95223588 87.53014308 C96.28998551 93.84170069 102.6199586 100.16098699 108.94398719 106.48629254 C112.71432601 110.25713989 116.48766578 114.02485565 120.26886559 117.78481483 C123.82450549 121.32102183 127.37032115 124.86679839 130.90899658 128.4199791 C132.20432487 129.7173899 133.50303338 131.01143666 134.80545998 132.30172157 C144.50519732 141.91690883 154.1284501 151.61783431 154.4375 166.125 C154.0554174 184.78336681 138.95271495 196.19843417 126.72851562 208.44848633 C125.41157896 209.77170251 124.09482699 211.09510254 122.77824402 212.41867065 C118.49110917 216.72664798 114.19881917 221.02946996 109.90625 225.33203125 C108.4214617 226.82087267 106.93670542 228.30974602 105.45198059 229.79865074 C98.48188719 236.7877416 91.50942253 243.77445607 84.53400755 250.75823575 C76.50345115 258.7985848 68.48126457 266.8471667 60.46599245 274.90275174 C54.25110689 281.14781409 48.02854866 287.38516447 41.80021238 293.61681193 C38.08785079 297.3315194 34.37884148 301.04943186 30.67793274 304.77555275 C27.19987929 308.27692333 23.71238026 311.7686043 20.21752357 315.25320053 C18.94064028 316.52958949 17.66714314 317.80937682 16.39740562 319.09287453 C6.77929796 328.80931858 -2.3341054 337.21192427 -16.75 337.375 C-23.29897188 337.27148622 -28.26388357 336.12597712 -34 333 C-34.63421875 332.66097656 -35.2684375 332.32195312 -35.921875 331.97265625 C-42.93970263 327.60980323 -47.56177895 320.35888035 -49.9375 312.5625 C-52.41661905 301.5769037 -51.19127729 293.64206266 -45.21908188 284.17771721 C-43.08135513 281.11650026 -40.8680402 278.62166678 -38.22906494 275.98855591 C-37.76420583 275.52198794 -37.29934671 275.05541998 -36.82040095 274.57471359 C-35.27591862 273.02696126 -33.72444331 271.4864234 -32.17285156 269.94580078 C-31.05854542 268.83205929 -29.94468049 267.71787621 -28.83122253 266.60328674 C-25.81742171 263.58891352 -22.79750665 260.58073458 -19.77643681 257.57364893 C-16.61647603 254.42621427 -13.46220072 251.27309219 -10.30731201 248.12057495 C-4.3367746 242.15624677 1.63884148 236.19703401 7.6163094 230.23965251 C14.42312856 223.45520965 21.22425071 216.665068 28.02490568 209.87444711 C42.0102842 195.90995799 56.00278408 181.95262329 70 168 C68.48513266 164.43653593 66.40504585 162.16491297 63.66853333 159.44821167 C62.75875732 158.54002182 61.84898132 157.63183197 60.91163635 156.69612122 C59.90056233 155.69690985 58.88940536 154.69778242 57.87817383 153.69873047 C56.81490739 152.64094091 55.75210347 151.58268625 54.68972778 150.52400208 C52.40131902 148.24530295 50.10988957 145.96970075 47.81614113 143.6963768 C44.18301249 140.09510411 40.55809071 136.48564656 36.93449402 132.87478638 C27.92823696 123.90259937 18.91280947 114.93964186 9.89233398 105.98175049 C2.88981594 99.02780162 -4.10941625 92.07062239 -11.09812909 85.10279572 C-14.69257622 81.51981348 -18.29383132 77.94386763 -21.90049112 74.3731811 C-24.15417619 72.13882874 -26.40145045 69.89811061 -28.64707565 67.65566063 C-29.68157682 66.62514407 -30.71863175 65.59718305 -31.75855827 64.57214165 C-42.65250098 53.82840816 -50.67639542 44.41463738 -51.3125 28.6875 C-51.25837075 22.99619559 -49.77442799 18.91083421 -47 14 C-46.443125 12.989375 -45.88625 11.97875 -45.3125 10.9375 C-33.92520658 -3.52744028 -16.87887553 -9.28715611 0 0 Z " fill="#FDC006" transform="translate(85,89)"/>
</svg>
