<?xml version="1.0" encoding="UTF-8"?>
<svg version="1.1" xmlns="http://www.w3.org/2000/svg" width="298" height="169">
<path d="M0 0 C1 1 1 1 1.125 3.5 C1 6 1 6 0 7 C-0.15980437 9.44608998 -0.25929447 11.86731058 -0.31640625 14.31640625 C-0.3475779 15.41298805 -0.3475779 15.41298805 -0.37937927 16.53172302 C-0.44495024 18.87521656 -0.50379432 21.21882539 -0.5625 23.5625 C-0.60567808 25.14779855 -0.64929213 26.73308529 -0.69335938 28.31835938 C-0.8006392 32.21212037 -0.9018849 36.10599772 -1 40 C-0.14349854 39.72067627 0.71300293 39.44135254 1.59545898 39.15356445 C13.01852823 35.51605978 13.01852823 35.51605978 19.0625 35.1875 C20.10535156 35.11917969 21.14820312 35.05085938 22.22265625 34.98046875 C26.44211634 35.01014147 28.46345534 35.64230356 32 38 C31.67 38.99 31.34 39.98 31 41 C28.03 41 25.06 41 22 41 C21.67 40.01 21.34 39.02 21 38 C19.35 38.66 17.7 39.32 16 40 C17.65 40 19.3 40 21 40 C20.34 41.65 19.68 43.3 19 45 C19.680625 45.12375 20.36125 45.2475 21.0625 45.375 C24.4277412 46.09100877 27.70013425 47.02945125 31 48 C31 48.66 31 49.32 31 50 C30.27635254 50.15033691 29.55270508 50.30067383 28.80712891 50.45556641 C10.31340601 54.33370801 -7.25584748 58.25388419 -24.125 66.9375 C-24.89521484 67.33227539 -25.66542969 67.72705078 -26.45898438 68.13378906 C-32.07118762 71.16045762 -39.06108746 75.12217493 -42 81 C-37.05 81 -32.1 81 -27 81 C-27.495 82.485 -27.495 82.485 -28 84 C-36.415 84.495 -36.415 84.495 -45 85 C-48.43422307 91.86844614 -49.95535458 96.35771066 -48 103.8125 C-45.5637327 107.69530102 -43.28129536 109.58311334 -39 111 C-22.12136954 114.78269153 -1.10699914 108.09013532 13.4296875 99.671875 C19.82210003 95.51389238 25.3700621 91.08536257 30 85 C27.03 84.67 24.06 84.34 21 84 C21 83.01 21 82.02 21 81 C25.95 81 30.9 81 36 81 C36 78.03 36 75.06 36 72 C38.97 72 41.94 72 45 72 C45 70.68 45 69.36 45 68 C43.35 68 41.7 68 40 68 C40 66.35 40 64.7 40 63 C41.65 63 43.3 63 45 63 C45 61.68 45 60.36 45 59 C46.32 59 47.64 59 49 59 C49 60.32 49 61.64 49 63 C50.65 63 52.3 63 54 63 C54 61.68 54 60.36 54 59 C55.32 59 56.64 59 58 59 C58 60.32 58 61.64 58 63 C59.65 63 61.3 63 63 63 C63 61.68 63 60.36 63 59 C64.32 59 65.64 59 67 59 C67 60.32 67 61.64 67 63 C68.65 63 70.3 63 72 63 C72 61.68 72 60.36 72 59 C73.32 59 74.64 59 76 59 C76 60.65 76 62.3 76 64 C74.68 64 73.36 64 72 64 C72 66.64 72 69.28 72 72 C70.35 72 68.7 72 67 72 C67 73.65 67 75.3 67 77 C65.68 77 64.36 77 63 77 C63 78.32 63 79.64 63 81 C81.21926759 80.91620091 99.43843925 80.82110516 117.65757561 80.71247292 C126.11658791 80.66230062 134.57559028 80.61585835 143.03466797 80.578125 C150.40556829 80.54523629 157.77639267 80.50542257 165.14720929 80.45720994 C169.0518399 80.43191375 172.95641994 80.41014183 176.86111069 80.39665604 C180.53335741 80.3838638 184.20543095 80.36184057 187.87758255 80.33261681 C189.87388027 80.31916771 191.87023688 80.31561404 193.86657715 80.31230164 C195.04730804 80.30113815 196.22803894 80.28997467 197.44454956 80.2784729 C198.99039639 80.27017676 198.99039639 80.27017676 200.56747246 80.26171303 C203.1803691 80.23790365 203.1803691 80.23790365 205 78 C207.625 78.375 207.625 78.375 210 79 C210.625 81.375 210.625 81.375 211 84 C209 86 209 86 206.4375 86.1875 C204 86 204 86 203 85 C201.14007847 84.89126816 199.27601123 84.85311214 197.41294861 84.84178162 C196.19993576 84.8319928 194.98692291 84.82220398 193.7371521 84.81211853 C192.38067666 84.80621358 191.02420081 84.80040319 189.66772461 84.79467773 C188.248873 84.78510451 186.83002427 84.77509477 185.41117859 84.76467896 C181.54774306 84.73756355 177.68429522 84.71659005 173.82081676 84.69667697 C169.78754971 84.67485819 165.75432086 84.64744947 161.72108459 84.62062073 C154.07837302 84.5706381 146.4356403 84.52572002 138.79288727 84.48259836 C130.09409269 84.43327348 121.39533642 84.3783378 112.69657886 84.32291877 C94.79775478 84.20901326 76.89889459 84.10219298 59 84 C58.67 85.65 58.34 87.3 58 89 C56.68 89 55.36 89 54 89 C54 87.68 54 86.36 54 85 C52.35 85 50.7 85 49 85 C49.10441406 85.556875 49.20882812 86.11375 49.31640625 86.6875 C49.71438917 90.42727598 49.73802293 92.97592167 47.48828125 96.09765625 C34.98689039 107.72094571 15.8409865 116.49845736 -1 119 C-0.88206661 124.53604375 -0.75784219 130.07189613 -0.62768555 135.60766602 C-0.58427067 137.49239218 -0.54260057 139.37715936 -0.50268555 141.26196289 C-0.44514107 143.96513249 -0.38140196 146.66809436 -0.31640625 149.37109375 C-0.29969376 150.21900986 -0.28298126 151.06692596 -0.26576233 151.9405365 C-0.53590805 155.78292076 -0.53590805 155.78292076 1 159 C1.1875 161.4375 1.1875 161.4375 1 164 C0.34 164.66 -0.32 165.32 -1 166 C-3.625 165.625 -3.625 165.625 -6 165 C-6.625 162.625 -6.625 162.625 -7 160 C-6.34 159.34 -5.68 158.68 -5 158 C-4.75418157 155.13563176 -4.62630619 152.3609686 -4.5859375 149.4921875 C-4.56657135 148.65156769 -4.5472052 147.81094788 -4.5272522 146.94485474 C-4.46738342 144.25500697 -4.42104229 141.56511657 -4.375 138.875 C-4.3368269 137.05336656 -4.29777556 135.2317513 -4.2578125 133.41015625 C-4.16167602 128.94025148 -4.07767231 124.47026221 -4 120 C-4.63486328 120.14147461 -5.26972656 120.28294922 -5.92382812 120.42871094 C-20.93629339 123.62799661 -37.40946848 123.16324695 -50.8203125 114.875 C-55.98017952 110.93379504 -58.42006795 106.35839034 -59.9375 100.1875 C-60.43073927 94.58649401 -58.48513025 88.9702605 -56 84 C-59.56278089 84.13942681 -63.1251426 84.28767078 -66.6875 84.4375 C-67.69490234 84.47681641 -68.70230469 84.51613281 -69.74023438 84.55664062 C-70.71669922 84.59853516 -71.69316406 84.64042969 -72.69921875 84.68359375 C-73.59471436 84.72025146 -74.49020996 84.75690918 -75.4128418 84.79467773 C-78.04144977 84.93643408 -78.04144977 84.93643408 -80.70629883 85.64477539 C-81.46322021 85.76199951 -82.2201416 85.87922363 -83 86 C-83.66 85.34 -84.32 84.68 -85 84 C-84.625 81.375 -84.625 81.375 -84 79 C-81.625 78.375 -81.625 78.375 -79 78 C-78.34 78.66 -77.68 79.32 -77 80 C-74.47962036 80.37135915 -74.47962036 80.37135915 -71.5546875 80.4140625 C-70.47832031 80.45273438 -69.40195313 80.49140625 -68.29296875 80.53125 C-67.16503906 80.5621875 -66.03710938 80.593125 -64.875 80.625 C-63.73933594 80.66367188 -62.60367188 80.70234375 -61.43359375 80.7421875 C-58.62256044 80.83667601 -55.81153767 80.92223541 -53 81 C-52.71713135 80.23341064 -52.4342627 79.46682129 -52.14282227 78.67700195 C-50.68208297 75.25529582 -48.46331976 72.85127929 -45.9375 70.1875 C-45.44145264 69.65979004 -44.94540527 69.13208008 -44.43432617 68.58837891 C-33.57206981 57.15571017 -20.8608068 47.63685775 -6 42 C-5.34 42 -4.68 42 -4 42 C-4.09342065 37.05174384 -4.1994876 32.10398366 -4.31738281 27.15625 C-4.35571104 25.47240671 -4.39055712 23.78848045 -4.421875 22.10449219 C-4.46744287 19.68654694 -4.52544923 17.26917472 -4.5859375 14.8515625 C-4.59748871 14.0963028 -4.60903992 13.34104309 -4.62094116 12.56289673 C-4.60330066 8.32174802 -4.60330066 8.32174802 -7 5 C-6.75 2.4375 -6.75 2.4375 -6 0 C-3.49749232 -1.25125384 -2.59701335 -0.83774624 0 0 Z M6 43 C6.33 43.66 6.66 44.32 7 45 C8.32 44.34 9.64 43.68 11 43 C9.35 43 7.7 43 6 43 Z M63 64 C63 66.64 63 69.28 63 72 C64.32 72 65.64 72 67 72 C67 69.36 67 66.72 67 64 C65.68 64 64.36 64 63 64 Z M54 68 C54 69.32 54 70.64 54 72 C55.32 72 56.64 72 58 72 C58 70.68 58 69.36 58 68 C56.68 68 55.36 68 54 68 Z M54 77 C54 78.32 54 79.64 54 81 C55.32 81 56.64 81 58 81 C58 79.68 58 78.36 58 77 C56.68 77 55.36 77 54 77 Z M41 81 C41 82.32 41 83.64 41 85 C42.32 85 43.64 85 45 85 C45 83.68 45 82.36 45 81 C43.68 81 42.36 81 41 81 Z " fill="#969595" transform="translate(86,2)"/>
<path d="M0 0 C1.32 0 2.64 0 4 0 C4 1.32 4 2.64 4 4 C5.65 4 7.3 4 9 4 C9 2.68 9 1.36 9 0 C10.32 0 11.64 0 13 0 C13 1.32 13 2.64 13 4 C14.65 4 16.3 4 18 4 C18 2.68 18 1.36 18 0 C19.32 0 20.64 0 22 0 C22 1.32 22 2.64 22 4 C23.65 4 25.3 4 27 4 C27 2.68 27 1.36 27 0 C28.32 0 29.64 0 31 0 C31 1.65 31 3.3 31 5 C29.68 5 28.36 5 27 5 C27 7.64 27 10.28 27 13 C25.35 13 23.7 13 22 13 C22 14.65 22 16.3 22 18 C20.68 18 19.36 18 18 18 C18 19.32 18 20.64 18 22 C36.21926759 21.91620091 54.43843925 21.82110516 72.65757561 21.71247292 C81.11658791 21.66230062 89.57559028 21.61585835 98.03466797 21.578125 C105.40556829 21.54523629 112.77639267 21.50542257 120.14720929 21.45720994 C124.0518399 21.43191375 127.95641994 21.41014183 131.86111069 21.39665604 C135.53335741 21.3838638 139.20543095 21.36184057 142.87758255 21.33261681 C144.87388027 21.31916771 146.87023688 21.31561404 148.86657715 21.31230164 C150.63767349 21.29555641 150.63767349 21.29555641 152.44454956 21.2784729 C153.99039639 21.27017676 153.99039639 21.27017676 155.56747246 21.26171303 C158.1803691 21.23790365 158.1803691 21.23790365 160 19 C162.625 19.375 162.625 19.375 165 20 C165.625 22.375 165.625 22.375 166 25 C164 27 164 27 161.4375 27.1875 C159 27 159 27 158 26 C156.14007847 25.89126816 154.27601123 25.85311214 152.41294861 25.84178162 C150.59342934 25.82709839 150.59342934 25.82709839 148.7371521 25.81211853 C147.38067666 25.80621358 146.02420081 25.80040319 144.66772461 25.79467773 C143.248873 25.78510451 141.83002427 25.77509477 140.41117859 25.76467896 C136.54774306 25.73756355 132.68429522 25.71659005 128.82081676 25.69667697 C124.78754971 25.67485819 120.75432086 25.64744947 116.72108459 25.62062073 C109.07837302 25.5706381 101.4356403 25.52572002 93.79288727 25.48259836 C85.09409269 25.43327348 76.39533642 25.3783378 67.69657886 25.32291877 C49.79775478 25.20901326 31.89889459 25.10219298 14 25 C13.505 27.475 13.505 27.475 13 30 C11.68 30 10.36 30 9 30 C9 28.68 9 27.36 9 26 C7.35 26 5.7 26 4 26 C4.10441406 26.556875 4.20882812 27.11375 4.31640625 27.6875 C4.71438917 31.42727598 4.73802293 33.97592167 2.48828125 37.09765625 C-10.17578404 48.87219385 -29.0617637 57.17696062 -46 60 C-46 72.87 -46 85.74 -46 99 C-46.33 99 -46.66 99 -47 99 C-47.02526838 92.03996553 -47.04283222 85.0799428 -47.05493164 78.11987305 C-47.05997341 75.75007688 -47.06680665 73.38028385 -47.07543945 71.01049805 C-47.0875119 67.61245961 -47.09322971 64.21446215 -47.09765625 60.81640625 C-47.10281754 59.74975235 -47.10797882 58.68309845 -47.11329651 57.5841217 C-47.11337204 56.60318039 -47.11344757 55.62223907 -47.11352539 54.61157227 C-47.115746 53.74331314 -47.11796661 52.87505402 -47.12025452 51.98048401 C-47 50 -47 50 -46 49 C-43.66702567 48.95907063 -41.33294775 48.95758277 -39 49 C-38.92652344 47.86884766 -38.92652344 47.86884766 -38.8515625 46.71484375 C-38 44 -38 44 -35.5234375 42.19140625 C-34.48445313 41.65386719 -33.44546875 41.11632812 -32.375 40.5625 C-25.23614074 36.65393216 -19.84675738 32.59159004 -15 26 C-17.97 25.67 -20.94 25.34 -24 25 C-24 24.01 -24 23.02 -24 22 C-19.05 22 -14.1 22 -9 22 C-9 19.03 -9 16.06 -9 13 C-6.03 13 -3.06 13 0 13 C0 11.68 0 10.36 0 9 C-1.65 9 -3.3 9 -5 9 C-5 7.35 -5 5.7 -5 4 C-3.35 4 -1.7 4 0 4 C0 2.68 0 1.36 0 0 Z M18 5 C18 7.64 18 10.28 18 13 C19.32 13 20.64 13 22 13 C22 10.36 22 7.72 22 5 C20.68 5 19.36 5 18 5 Z M9 9 C9 10.32 9 11.64 9 13 C10.32 13 11.64 13 13 13 C13 11.68 13 10.36 13 9 C11.68 9 10.36 9 9 9 Z M9 18 C9 19.32 9 20.64 9 22 C10.32 22 11.64 22 13 22 C13 20.68 13 19.36 13 18 C11.68 18 10.36 18 9 18 Z M-4 22 C-4 23.32 -4 24.64 -4 26 C-2.68 26 -1.36 26 0 26 C0 24.68 0 23.36 0 22 C-1.32 22 -2.64 22 -4 22 Z " fill="#9A9999" transform="translate(131,61)"/>
<path d="M0 0 C5.60490617 4.7983465 8.22857439 9.76554199 8.9765625 16.99609375 C8.87447974 22.45752164 6.7565087 26.97832177 3.6015625 31.37109375 C-1.98466183 36.13133938 -7.51415898 37.74357335 -14.765625 37.6484375 C-20.36643439 37.05844126 -24.60116908 34.58938458 -28.2734375 30.37109375 C-32.77354789 24.01799673 -33.06237019 19.09968519 -32.3984375 11.37109375 C-30.14264709 4.84117415 -25.48571585 0.49277495 -19.3984375 -2.62890625 C-13.0056378 -4.66543105 -5.62346176 -3.63792668 0 0 Z M-24.3984375 3.37109375 C-25.69477371 4.4375449 -25.69477371 4.4375449 -25.4609375 6.93359375 C-25.4403125 7.73796875 -25.4196875 8.54234375 -25.3984375 9.37109375 C-23.00124318 10.05067978 -23.00124318 10.05067978 -20.3984375 10.37109375 C-19.7384375 9.71109375 -19.0784375 9.05109375 -18.3984375 8.37109375 C-18.7169552 6.26288578 -18.7169552 6.26288578 -19.3984375 4.37109375 C-21.05458407 3.98890608 -22.72300774 3.65714273 -24.3984375 3.37109375 Z " fill="#EE8808" transform="translate(95.3984375,67.62890625)"/>
<path d="M0 0 C16.5 0 33 0 50 0 C50 0.33 50 0.66 50 1 C41.585 1.495 41.585 1.495 33 2 C29.56577693 8.86844614 28.04464542 13.35771066 30 20.8125 C32.4362673 24.69530102 34.71870464 26.58311334 39 28 C52.80813101 31.09455795 67.1718326 26.64342391 80.12109375 21.98828125 C83 21 83 21 85 21 C84.67 22.32 84.34 23.64 84 25 C81.69 25.33 79.38 25.66 77 26 C76.67 42.17 76.34 58.34 76 75 C77.485 75.495 77.485 75.495 79 76 C79.125 78.375 79.125 78.375 79 81 C78.34 81.66 77.68 82.32 77 83 C74.375 82.625 74.375 82.625 72 82 C71.375 79.625 71.375 79.625 71 77 C71.66 76.34 72.32 75.68 73 75 C73.24581843 72.13563176 73.37369381 69.3609686 73.4140625 66.4921875 C73.43342865 65.65156769 73.4527948 64.81094788 73.4727478 63.94485474 C73.53261658 61.25500697 73.57895771 58.56511657 73.625 55.875 C73.6631731 54.05336656 73.70222444 52.2317513 73.7421875 50.41015625 C73.83832398 45.94025148 73.92232769 41.47026221 74 37 C73.36513672 37.14147461 72.73027344 37.28294922 72.07617188 37.42871094 C57.06370661 40.62799661 40.59053152 40.16324695 27.1796875 31.875 C22.01982048 27.93379504 19.57993205 23.35839034 18.0625 17.1875 C17.56926073 11.58649401 19.51486975 5.9702605 22 1 C14.74 1 7.48 1 0 1 C0 0.67 0 0.34 0 0 Z " fill="#9A9899" transform="translate(8,85)"/>
<path d="M0 0 C2.625 0.375 2.625 0.375 5 1 C5.625 3.375 5.625 3.375 6 6 C4 8 4 8 1.4375 8.1875 C-1 8 -1 8 -2 7 C-3.85992153 6.89126816 -5.72398877 6.85311214 -7.58705139 6.84178162 C-9.40657066 6.82709839 -9.40657066 6.82709839 -11.2628479 6.81211853 C-12.61932334 6.80621358 -13.97579919 6.80040319 -15.33227539 6.79467773 C-16.751127 6.78510451 -18.16997573 6.77509477 -19.58882141 6.76467896 C-23.45225694 6.73756355 -27.31570478 6.71659005 -31.17918324 6.69667697 C-35.21245029 6.67485819 -39.24567914 6.64744947 -43.27891541 6.62062073 C-50.92162698 6.5706381 -58.5643597 6.52572002 -66.20711273 6.48259836 C-74.90590731 6.43327348 -83.60466358 6.3783378 -92.30342114 6.32291877 C-110.20224522 6.20901326 -128.10110541 6.10219298 -146 6 C-146 5.01 -146 4.02 -146 3 C-145.25970613 2.99668985 -144.51941227 2.99337971 -143.75668526 2.98996925 C-125.76366125 2.90883383 -107.77072374 2.81677271 -89.77781868 2.71247292 C-81.07666923 2.66229972 -72.37552943 2.61585746 -63.67431641 2.578125 C-56.09246671 2.54523723 -48.51069084 2.50542403 -40.92892253 2.45720994 C-36.91250912 2.43191282 -32.89614489 2.41014117 -28.879673 2.39665604 C-25.10236945 2.38386465 -21.32523429 2.36184233 -17.54802322 2.33261681 C-16.15885738 2.32351804 -14.76966439 2.31784547 -13.38047028 2.31578636 C-11.48937747 2.31248015 -9.5983217 2.29585641 -7.70730591 2.2784729 C-6.64724398 2.27294214 -5.58718204 2.26741138 -4.49499702 2.26171303 C-1.82681914 2.24647322 -1.82681914 2.24647322 0 0 Z " fill="#767676" transform="translate(291,80)"/>
<path d="M0 0 C0.66 0.33 1.32 0.66 2 1 C1.67 11.89 1.34 22.78 1 34 C5.29 32.68 9.58 31.36 14 30 C17.97265625 29.35546875 17.97265625 29.35546875 21.0625 29.1875 C22.10535156 29.11917969 23.14820313 29.05085938 24.22265625 28.98046875 C28.44211634 29.01014147 30.46345534 29.64230356 34 32 C33.67 32.99 33.34 33.98 33 35 C30.03 35 27.06 35 24 35 C23.67 34.01 23.34 33.02 23 32 C21.35 32.66 19.7 33.32 18 34 C19.65 34 21.3 34 23 34 C22.01 36.475 22.01 36.475 21 39 C22.0209375 39.185625 22.0209375 39.185625 23.0625 39.375 C26.4277412 40.09100877 29.70013425 41.02945125 33 42 C33 42.66 33 43.32 33 44 C21 46.66666667 9 49.33333333 -3 52 C-3 51.34 -3 50.68 -3 50 C-2.01 50 -1.02 50 0 50 C0 33.5 0 17 0 0 Z M8 37 C8.33 37.66 8.66 38.32 9 39 C10.32 38.34 11.64 37.68 13 37 C11.35 37 9.7 37 8 37 Z " fill="#A8A6A7" transform="translate(84,8)"/>
<path d="M0 0 C16.5 0 33 0 50 0 C50 0.33 50 0.66 50 1 C41.585 1.495 41.585 1.495 33 2 C30.11670318 7.76659364 27.92159123 12.6200013 29.5078125 19.0625 C30.85960539 22.47755573 31.90722278 23.93814852 35 26 C34 29 34 29 32 30 C30.66666667 30.66666667 29.33333333 31.33333333 28 32 C22.33453934 28.06565232 19.67503065 23.74512466 18.0625 17.1875 C17.56926073 11.58649401 19.51486975 5.9702605 22 1 C14.74 1 7.48 1 0 1 C0 0.67 0 0.34 0 0 Z " fill="#A4A2A3" transform="translate(8,85)"/>
<path d="M0 0 C0.33 0.66 0.66 1.32 1 2 C1.66 2 2.32 2 3 2 C2.814375 2.598125 2.62875 3.19625 2.4375 3.8125 C1.77906313 6.16408762 1.77906313 6.16408762 3 9 C6.63 9 10.26 9 14 9 C10.79784752 11.40161436 8.8172047 12.63796805 5.2265625 14.0078125 C4.3190625 14.35457031 3.4115625 14.70132813 2.4765625 15.05859375 C1.53554687 15.41050781 0.59453125 15.76242188 -0.375 16.125 C-1.30828125 16.48464844 -2.2415625 16.84429687 -3.203125 17.21484375 C-7.93946874 19.00606723 -11.92369262 20.15394877 -17 21 C-17 33.87 -17 46.74 -17 60 C-17.33 60 -17.66 60 -18 60 C-18.02526838 53.03996553 -18.04283222 46.0799428 -18.05493164 39.11987305 C-18.05997341 36.75007688 -18.06680665 34.38028385 -18.07543945 32.01049805 C-18.0875119 28.61245961 -18.09322971 25.21446215 -18.09765625 21.81640625 C-18.10281754 20.74975235 -18.10797882 19.68309845 -18.11329651 18.5841217 C-18.11337204 17.60318039 -18.11344757 16.62223907 -18.11352539 15.61157227 C-18.115746 14.74331314 -18.11796661 13.87505402 -18.12025452 12.98048401 C-18 11 -18 11 -17 10 C-14.66702567 9.95907063 -12.33294775 9.95758277 -10 10 C-9.92910156 9.23300781 -9.85820313 8.46601562 -9.78515625 7.67578125 C-9 5 -9 5 -6.93359375 3.41796875 C-6.10988281 3.01191406 -5.28617188 2.60585937 -4.4375 2.1875 C-3.61121094 1.76855469 -2.78492187 1.34960938 -1.93359375 0.91796875 C-1.29550781 0.61503906 -0.65742187 0.31210938 0 0 Z M0 2 C1 4 1 4 1 4 Z " fill="#9F9E9E" transform="translate(102,100)"/>
<path d="M0 0 C4.55555556 0.55555556 4.55555556 0.55555556 6 2 C7.56448383 2.12263388 9.13432772 2.17779522 10.70336914 2.20532227 C12.20481224 2.2352401 12.20481224 2.2352401 13.73658752 2.26576233 C15.36937904 2.29083107 15.36937904 2.29083107 17.03515625 2.31640625 C18.14354355 2.33718735 19.25193085 2.35796844 20.39390564 2.37937927 C23.95003808 2.44499623 27.50624703 2.50381596 31.0625 2.5625 C33.46680493 2.60567368 35.87110199 2.64928758 38.27539062 2.69335938 C44.18351185 2.80068992 50.09170991 2.90243331 56 3 C56 3.66 56 4.32 56 5 C39.17 5 22.34 5 5 5 C4.67 5.99 4.34 6.98 4 8 C2.35 7.67 0.7 7.34 -1 7 C-1.625 4.625 -1.625 4.625 -2 2 C-1.34 1.34 -0.68 0.68 0 0 Z " fill="#2E2C2C" transform="translate(3,80)"/>
<path d="M0 0 C0.66 0 1.32 0 2 0 C2 16.17 2 32.34 2 49 C2.99 49.33 3.98 49.66 5 50 C5.125 52.375 5.125 52.375 5 55 C4.34 55.66 3.68 56.32 3 57 C0.375 56.625 0.375 56.625 -2 56 C-2.625 53.625 -2.625 53.625 -3 51 C-2.34 50.34 -1.68 49.68 -1 49 C-0.66947545 46.81875409 -0.66947545 46.81875409 -0.68115234 44.27490234 C-0.66128265 43.29403656 -0.64141296 42.31317078 -0.62094116 41.30258179 C-0.60938995 40.24108917 -0.59783875 39.17959656 -0.5859375 38.0859375 C-0.56657135 37.00116119 -0.5472052 35.91638489 -0.5272522 34.79873657 C-0.46733574 31.32423841 -0.42102261 27.84970733 -0.375 24.375 C-0.33683135 22.02342282 -0.29778029 19.67185979 -0.2578125 17.3203125 C-0.16162441 11.5470003 -0.07661247 5.77360334 0 0 Z " fill="#4B3F3F" transform="translate(82,111)"/>
<path d="M0 0 C1 1 1 1 1.0625 3.5625 C1.041875 4.366875 1.02125 5.17125 1 6 C0.01 6 -0.98 6 -2 6 C-2 22.5 -2 39 -2 56 C-2.66 56 -3.32 56 -4 56 C-4.00808685 55.39056549 -4.01617371 54.78113098 -4.02450562 54.15322876 C-4.11036845 47.82687016 -4.20986327 41.50083154 -4.31738281 35.17480469 C-4.35573527 32.81190349 -4.39057692 30.44894266 -4.421875 28.0859375 C-4.46738966 24.6950952 -4.52540619 21.30466576 -4.5859375 17.9140625 C-4.60326431 16.32182358 -4.60326431 16.32182358 -4.62094116 14.69741821 C-4.64081085 13.71655243 -4.66068054 12.73568665 -4.68115234 11.72509766 C-4.69447601 10.85905914 -4.70779968 9.99302063 -4.7215271 9.10073853 C-4.81220713 6.78242358 -4.81220713 6.78242358 -7 5 C-6.75 2.4375 -6.75 2.4375 -6 0 C-3.49749232 -1.25125384 -2.59701335 -0.83774624 0 0 Z " fill="#52403F" transform="translate(86,2)"/>
<path d="M0 0 C6.27 0 12.54 0 19 0 C19 3.96 19 7.92 19 12 C16.36 12 13.72 12 11 12 C11 9.69 11 7.38 11 5 C8.70370006 3.85185003 6.92301914 3.69230191 4.375 3.4375 C3.55773437 3.35371094 2.74046875 3.26992187 1.8984375 3.18359375 C1.27195312 3.12300781 0.64546875 3.06242187 0 3 C0 2.01 0 1.02 0 0 Z " fill="#989798" transform="translate(107,83)"/>
<path d="M0 0 C1.32 0 2.64 0 4 0 C4 1.32 4 2.64 4 4 C5.32 4 6.64 4 8 4 C8 2.68 8 1.36 8 0 C9.65 0 11.3 0 13 0 C13 1.32 13 2.64 13 4 C11.68 4 10.36 4 9 4 C8.67 6.64 8.34 9.28 8 12 C6.68 12 5.36 12 4 12 C4 10.68 4 9.36 4 8 C2.68 8 1.36 8 0 8 C0 5.36 0 2.72 0 0 Z " fill="#9E9E9E" transform="translate(136,79)"/>
<path d="M0 0 C1.65 0 3.3 0 5 0 C5 6.93 5 13.86 5 21 C7.64 21 10.28 21 13 21 C12.34 21.66 11.68 22.32 11 23 C8.24410223 22.98252073 5.61213324 22.86136729 2.875 22.625 C2.12089844 22.56828125 1.36679688 22.5115625 0.58984375 22.453125 C-1.27418096 22.3115535 -3.13721137 22.15700041 -5 22 C-5 19.36 -5 16.72 -5 14 C-4.67 14 -4.34 14 -4 14 C-4 16.31 -4 18.62 -4 21 C-1.36 21 1.28 21 4 21 C4 17.04 4 13.08 4 9 C2.68 9 1.36 9 0 9 C0 6.03 0 3.06 0 0 Z " fill="#E6E6E6" transform="translate(122,74)"/>
<path d="M0 0 C2.64 0 5.28 0 8 0 C8 3.96 8 7.92 8 12 C5.36 12 2.72 12 0 12 C0 10.68 0 9.36 0 8 C1.32 8 2.64 8 4 8 C4 6.68 4 5.36 4 4 C2.68 4 1.36 4 0 4 C0 2.68 0 1.36 0 0 Z " fill="#9D9D9D" transform="translate(127,66)"/>
<path d="M0 0 C2.64 0 5.28 0 8 0 C8 1.32 8 2.64 8 4 C6.68 4 5.36 4 4 4 C4 5.32 4 6.64 4 8 C5.32 8 6.64 8 8 8 C8 9.32 8 10.64 8 12 C5.36 12 2.72 12 0 12 C0 8.04 0 4.08 0 0 Z " fill="#A1A1A1" transform="translate(136,66)"/>
<path d="M0 0 C0.66 0.33 1.32 0.66 2 1 C1.67 1.66 1.34 2.32 1 3 C1.680625 3.12375 2.36125 3.2475 3.0625 3.375 C6.4277412 4.09100877 9.70013425 5.02945125 13 6 C13 6.66 13 7.32 13 8 C3.58997722 10.29612756 3.58997722 10.29612756 -1 10 C-1 8.68 -1 7.36 -1 6 C-0.34 6 0.32 6 1 6 C1 5.34 1 4.68 1 4 C0.071875 4.309375 0.071875 4.309375 -0.875 4.625 C-1.57625 4.74875 -2.2775 4.8725 -3 5 C-3.66 4.34 -4.32 3.68 -5 3 C-3.35 3 -1.7 3 0 3 C0 2.01 0 1.02 0 0 Z " fill="#B8B7B8" transform="translate(104,44)"/>
<path d="M0 0 C1.32 0 2.64 0 4 0 C4 1.32 4 2.64 4 4 C5.65 4 7.3 4 9 4 C7.68 4.33 6.36 4.66 5 5 C5 8.96 5 12.92 5 17 C10.61 17 16.22 17 22 17 C22 17.33 22 17.66 22 18 C16.39 18 10.78 18 5 18 C5 20.64 5 23.28 5 26 C4.67 26 4.34 26 4 26 C4 19.07 4 12.14 4 5 C1.36 5 -1.28 5 -4 5 C-4.33 6.32 -4.66 7.64 -5 9 C-5 7.35 -5 5.7 -5 4 C-3.35 4 -1.7 4 0 4 C0 2.68 0 1.36 0 0 Z " fill="#D6D6D6" transform="translate(131,61)"/>
<path d="M0 0 C0.33 0.66 0.66 1.32 1 2 C1.99 2.33 2.98 2.66 4 3 C3.67 3.99 3.34 4.98 3 6 C0.03 6 -2.94 6 -6 6 C-6.33 5.01 -6.66 4.02 -7 3 C-11.07964281 4.30155006 -11.07964281 4.30155006 -15 6 C-15 5.01 -15 4.02 -15 3 C-16.65 3 -18.3 3 -20 3 C-13.95069427 -0.62958344 -6.81948742 -0.13917321 0 0 Z " fill="#B8B8B8" transform="translate(114,37)"/>
<path d="M0 0 C5.28 0 10.56 0 16 0 C13.9546851 4.0906298 13.06764117 4.92891126 9.375 7.25 C8.55773437 7.77078125 7.74046875 8.2915625 6.8984375 8.828125 C5.95871094 9.40820312 5.95871094 9.40820312 5 10 C4.8046875 6.97265625 4.8046875 6.97265625 4.609375 3.9453125 C4.40828125 3.30335937 4.2071875 2.66140625 4 2 C2.68 1.34 1.36 0.68 0 0 Z " fill="#9C9B9C" transform="translate(117,96)"/>
<path d="M0 0 C1.32 0 2.64 0 4 0 C4 2.64 4 5.28 4 8 C5.32 8 6.64 8 8 8 C8 9.32 8 10.64 8 12 C5.36 12 2.72 12 0 12 C0 8.04 0 4.08 0 0 Z " fill="#A2A2A2" transform="translate(145,66)"/>
<path d="M0 0 C1.32 0 2.64 0 4 0 C4 1.32 4 2.64 4 4 C5.65 4 7.3 4 9 4 C9 2.68 9 1.36 9 0 C10.32 0 11.64 0 13 0 C13 1.65 13 3.3 13 5 C10.36 5 7.72 5 5 5 C5 8.96 5 12.92 5 17 C4.67 17 4.34 17 4 17 C4 13.04 4 9.08 4 5 C2.68 5 1.36 5 0 5 C0 3.35 0 1.7 0 0 Z " fill="#B9B9B9" transform="translate(140,61)"/>
<path d="M0 0 C0.88933127 3.1497149 1.24681178 6.17770164 1.5 9.4375 C1.77933818 13.02400266 2.08253886 16.51364766 3 20 C4.84982472 21.25827123 4.84982472 21.25827123 7 22 C10 24 10 24 11 27 C5.51991569 25.43426163 2.81596816 21.91181102 -0.1328125 17.18359375 C-1.26202105 14.34022629 -1.22909093 11.98876212 -1.1875 8.9375 C-1.18105469 7.89464844 -1.17460938 6.85179688 -1.16796875 5.77734375 C-1 3 -1 3 0 0 Z " fill="#E3A14E" transform="translate(64,76)"/>
<path d="M0 0 C2.625 0.375 2.625 0.375 5 1 C5.625 3.375 5.625 3.375 6 6 C4 8 4 8 1.4375 8.1875 C-1 8 -1 8 -2 7 C-2.1875 4.5625 -2.1875 4.5625 -2 2 C-1.34 1.34 -0.68 0.68 0 0 Z " fill="#C9504A" transform="translate(291,80)"/>
<path d="M0 0 C1.32 0 2.64 0 4 0 C4 4.29 4 8.58 4 13 C2.68 13 1.36 13 0 13 C0 8.71 0 4.42 0 0 Z " fill="#9C9C9C" transform="translate(167,35)"/>
<path d="M0 0 C-0.99 0.66 -1.98 1.32 -3 2 C-3 1.34 -3 0.68 -3 0 C-9.93 0 -16.86 0 -24 0 C-16.46868785 -5.64848411 -8.0170576 -4.8524296 0 0 Z " fill="#E5A553" transform="translate(96,68)"/>
<path d="M0 0 C1.32 0 2.64 0 4 0 C4 0.66 4 1.32 4 2 C5.65 2 7.3 2 9 2 C9.33 2.66 9.66 3.32 10 4 C5.59085217 5.10228696 1.51617599 5.07654536 -3 5 C-3 4.34 -3 3.68 -3 3 C-4.65 3.33 -6.3 3.66 -8 4 C-8.33 3.34 -8.66 2.68 -9 2 C-6.30234449 0.65117225 -3.98421978 1 -1 1 C-0.67 0.67 -0.34 0.34 0 0 Z " fill="#B1B1B1" transform="translate(117,43)"/>
<path d="M0 0 C2.5625 0.25 2.5625 0.25 5 1 C5.33 1.66 5.66 2.32 6 3 C5.0625 5.625 5.0625 5.625 4 8 C2.35 7.67 0.7 7.34 -1 7 C-1.625 4.625 -1.625 4.625 -2 2 C-1.34 1.34 -0.68 0.68 0 0 Z " fill="#CA4B48" transform="translate(3,80)"/>
<path d="M0 0 C2.64 0 5.28 0 8 0 C8 1.65 8 3.3 8 5 C5.36 5 2.72 5 0 5 C0 3.35 0 1.7 0 0 Z " fill="#AFAFAF" transform="translate(127,78)"/>
<path d="M0 0 C1.65 0 3.3 0 5 0 C5.125 2.375 5.125 2.375 5 5 C4.34 5.66 3.68 6.32 3 7 C0.375 6.625 0.375 6.625 -2 6 C-2 4.68 -2 3.36 -2 2 C-1.34 2 -0.68 2 0 2 C0 1.34 0 0.68 0 0 Z " fill="#C3413C" transform="translate(82,161)"/>
<path d="M0 0 C3.07255337 3.07255337 2.953322 5.43986398 3.3125 9.75 C3.28577578 14.48909577 1.38364313 17.99888475 -1 22 C-1.33 22 -1.66 22 -2 22 C-2 20.35 -2 18.7 -2 17 C-1.34 16.67 -0.68 16.34 0 16 C0 10.72 0 5.44 0 0 Z " fill="#E5A85B" transform="translate(101,75)"/>
<path d="M0 0 C0.91007812 0.00902344 1.82015625 0.01804688 2.7578125 0.02734375 C3.45648438 0.03894531 4.15515625 0.05054688 4.875 0.0625 C4.875 0.7225 4.875 1.3825 4.875 2.0625 C3.885 2.0625 2.895 2.0625 1.875 2.0625 C1.875 3.0525 1.875 4.0425 1.875 5.0625 C-0.105 5.3925 -2.085 5.7225 -4.125 6.0625 C-4.24875 5.423125 -4.3725 4.78375 -4.5 4.125 C-4.809375 3.1040625 -4.809375 3.1040625 -5.125 2.0625 C-5.785 1.7325 -6.445 1.4025 -7.125 1.0625 C-4.60024538 -0.19987731 -2.81299534 -0.03606404 0 0 Z " fill="#989898" transform="translate(102.125,41.9375)"/>
<path d="M0 0 C7.42857143 1 7.42857143 1 11 2 C11 2.66 11 3.32 11 4 C7.32589215 5.17571451 3.83070817 5.07366746 0 5 C0 3.35 0 1.7 0 0 Z " fill="#AEAEAE" transform="translate(106,48)"/>
<path d="M0 0 C0.33 0.66 0.66 1.32 1 2 C1.99 2.33 2.98 2.66 4 3 C2.68 3.33 1.36 3.66 0 4 C0 5.98 0 7.96 0 10 C-0.66 10 -1.32 10 -2 10 C-2 9.34 -2 8.68 -2 8 C-3.32 8 -4.64 8 -6 8 C-4.55746343 4.63408134 -2.66735273 2.48952921 0 0 Z " fill="#E2A75E" transform="translate(71,68)"/>
<path d="M0 0 C2.64 0 5.28 0 8 0 C8 1.32 8 2.64 8 4 C5.36 4 2.72 4 0 4 C0 2.68 0 1.36 0 0 Z " fill="#A6A6A6" transform="translate(127,91)"/>
<path d="M0 0 C2.64 0 5.28 0 8 0 C8 1.32 8 2.64 8 4 C5.36 4 2.72 4 0 4 C0 2.68 0 1.36 0 0 Z " fill="#A6A6A6" transform="translate(118,91)"/>
<path d="M0 0 C1.32 0 2.64 0 4 0 C4 2.64 4 5.28 4 8 C2.68 8 1.36 8 0 8 C0 5.36 0 2.72 0 0 Z " fill="#A1A1A1" transform="translate(122,74)"/>
<path d="M0 0 C2.64 0 5.28 0 8 0 C8 1.32 8 2.64 8 4 C5.36 4 2.72 4 0 4 C0 2.68 0 1.36 0 0 Z " fill="#A3A3A3" transform="translate(127,66)"/>
<path d="M0 0 C1.65 0 3.3 0 5 0 C5 1.65 5 3.3 5 5 C3.125 5.625 3.125 5.625 1 6 C0.34 5.34 -0.32 4.68 -1 4 C-0.625 1.875 -0.625 1.875 0 0 Z " fill="#C62E2B" transform="translate(82,3)"/>
<path d="M0 0 C0 0.66 0 1.32 0 2 C-0.66 2 -1.32 2 -2 2 C-2 3.32 -2 4.64 -2 6 C-5.35595828 5.40072174 -7.37801226 4.15377564 -10 2 C-3.375 0 -3.375 0 0 0 Z " fill="#8F8D8E" transform="translate(105,48)"/>
<path d="M0 0 C0.79921875 0.01804688 1.5984375 0.03609375 2.421875 0.0546875 C3.02515625 0.07789063 3.6284375 0.10109375 4.25 0.125 C1.69008376 2.13636276 -0.79590299 3.75345496 -3.75 5.125 C-3.75 4.135 -3.75 3.145 -3.75 2.125 C-5.4 2.125 -7.05 2.125 -8.75 2.125 C-5.68753253 0.34090198 -3.52920727 -0.10380021 0 0 Z " fill="#ADADAD" transform="translate(102.75,37.875)"/>
<path d="M0 0 C0.99 0.33 1.98 0.66 3 1 C2.51917969 1.54140625 2.03835937 2.0828125 1.54296875 2.640625 C-0.31323558 5.47897288 -0.48737656 7.38792626 -0.6875 10.75 C-0.75324219 11.73484375 -0.81898437 12.7196875 -0.88671875 13.734375 C-0.92410156 14.48203125 -0.96148437 15.2296875 -1 16 C-1.33 16 -1.66 16 -2 16 C-2 11.05 -2 6.1 -2 1 C-1.34 0.67 -0.68 0.34 0 0 Z " fill="#878586" transform="translate(86,42)"/>
<path d="M0 0 C2.97 0 5.94 0 9 0 C8 3 8 3 7 5 C5.68 4.67 4.36 4.34 3 4 C3.33 3.34 3.66 2.68 4 2 C2.68 1.34 1.36 0.68 0 0 Z " fill="#A4A3A3" transform="translate(90,40)"/>
<path d="M0 0 C1.32 0 2.64 0 4 0 C4 1.65 4 3.3 4 5 C2.35 5 0.7 5 -1 5 C-0.67 3.35 -0.34 1.7 0 0 Z " fill="#BABABA" transform="translate(176,65)"/>
<path d="M0 0 C3.3 0 6.6 0 10 0 C6.37542083 2.71843438 5.19115285 3.41789544 1 4 C0.67 2.68 0.34 1.36 0 0 Z " fill="#A6A4A8" transform="translate(106,109)"/>
<path d="M0 0 C-0.33 1.32 -0.66 2.64 -1 4 C-3.64 4.33 -6.28 4.66 -9 5 C-9.33 4.34 -9.66 3.68 -10 3 C-8.70990357 2.49596232 -7.41786211 1.99690074 -6.125 1.5 C-5.04605469 1.08234375 -5.04605469 1.08234375 -3.9453125 0.65625 C-2 0 -2 0 0 0 Z " fill="#A1A2A5" transform="translate(93,106)"/>
<path d="M0 0 C1.65 0 3.3 0 5 0 C4.67 1.65 4.34 3.3 4 5 C2.68 4.67 1.36 4.34 0 4 C0 2.68 0 1.36 0 0 Z " fill="#B8B8B8" transform="translate(144,48)"/>
<path d="M0 0 C1.65 0 3.3 0 5 0 C5 1.32 5 2.64 5 4 C3.68 4 2.36 4 1 4 C0.67 4.66 0.34 5.32 0 6 C0 4.02 0 2.04 0 0 Z " fill="#B7B7B7" transform="translate(144,79)"/>
<path d="M0 0 C1.32 0 2.64 0 4 0 C4 0.66 4 1.32 4 2 C5.98 2 7.96 2 10 2 C9.67 2.66 9.34 3.32 9 4 C8.05125 3.979375 7.1025 3.95875 6.125 3.9375 C3.09333717 3.77448174 3.09333717 3.77448174 1 5 C0.67 3.35 0.34 1.7 0 0 Z " fill="#E98C1B" transform="translate(65,76)"/>
<path d="M0 0 C1.32 0 2.64 0 4 0 C4 1.65 4 3.3 4 5 C2.68 5 1.36 5 0 5 C0 3.35 0 1.7 0 0 Z " fill="#AAAAAA" transform="translate(158,74)"/>
<path d="M0 0 C1.65 0 3.3 0 5 0 C5 1.32 5 2.64 5 4 C3.35 4 1.7 4 0 4 C0 2.68 0 1.36 0 0 Z " fill="#ABABAB" transform="translate(153,57)"/>
<path d="M0 0 C1.65 0 3.3 0 5 0 C5 1.32 5 2.64 5 4 C3.35 4 1.7 4 0 4 C0 2.68 0 1.36 0 0 Z " fill="#ABABAB" transform="translate(144,57)"/>
<path d="M0 0 C1.32 0 2.64 0 4 0 C4 1.65 4 3.3 4 5 C2.68 5 1.36 5 0 5 C0 3.35 0 1.7 0 0 Z " fill="#ABABAB" transform="translate(158,52)"/>
<path d="M0 0 C1.32 0 2.64 0 4 0 C4 1.65 4 3.3 4 5 C2.68 5 1.36 5 0 5 C0 3.35 0 1.7 0 0 Z " fill="#ADADAD" transform="translate(167,52)"/>
<path d="M0 0 C1.32 0 2.64 0 4 0 C4 1.65 4 3.3 4 5 C2.68 5 1.36 5 0 5 C0 3.35 0 1.7 0 0 Z " fill="#AAAAAA" transform="translate(149,52)"/>
<path d="M0 0 C1.65 0 3.3 0 5 0 C5 1.32 5 2.64 5 4 C3.35 4 1.7 4 0 4 C0 2.68 0 1.36 0 0 Z " fill="#ADADAD" transform="translate(180,44)"/>
<path d="M0 0 C2.97 0 5.94 0 9 0 C9.33 0.66 9.66 1.32 10 2 C9.01 2 8.02 2 7 2 C6.67 2.66 6.34 3.32 6 4 C4.68 3.67 3.36 3.34 2 3 C2 2.34 2 1.68 2 1 C1.34 0.67 0.68 0.34 0 0 Z " fill="#C6C6C6" transform="translate(105,37)"/>
<path d="M0 0 C1.32 0 2.64 0 4 0 C4 1.65 4 3.3 4 5 C2.68 5 1.36 5 0 5 C0 3.35 0 1.7 0 0 Z " fill="#A8A8A8" transform="translate(167,35)"/>
<path d="M0 0 C1.65 0 3.3 0 5 0 C5 1.32 5 2.64 5 4 C3.35 4 1.7 4 0 4 C0 2.68 0 1.36 0 0 Z " fill="#ACACAC" transform="translate(171,31)"/>
<path d="M0 0 C1.32 0 2.64 0 4 0 C4 0.66 4 1.32 4 2 C5.65 2 7.3 2 9 2 C9.33 2.66 9.66 3.32 10 4 C2.25 3.125 2.25 3.125 0 2 C0 1.34 0 0.68 0 0 Z " fill="#C9C9C9" transform="translate(117,43)"/>
<path d="M0 0 C0.66 0.66 1.32 1.32 2 2 C-1.465 4.97 -1.465 4.97 -5 8 C-5.66 7.67 -6.32 7.34 -7 7 C-4.69 4.69 -2.38 2.38 0 0 Z " fill="#A9A7A9" transform="translate(50,62)"/>
<path d="M0 0 C2.475 0.99 2.475 0.99 5 2 C4.67 2.99 4.34 3.98 4 5 C2.68 5 1.36 5 0 5 C0 3.35 0 1.7 0 0 Z " fill="#8F8D8E" transform="translate(106,48)"/>
</svg>
